name rise32.9588peak41.5061fall63.4684.mot
datacolumns 19
datarows 14
range 17.12329100000000 17.14493800000000
endheader
time	ground_force1_vx	ground_force1_vy	ground_force1_vz	ground_force1_px	ground_force1_py	ground_force1_pz	ground_force2_vx	ground_force2_vy	ground_force2_vz	ground_force2_px	ground_force2_py	ground_force2_pz	ground_torque1_x	ground_torque1_y	ground_torque1_z	ground_torque2_x	ground_torque2_y	ground_torque2_z	
17.12329100000000	-4.03717700000000	42.05487400000000	-9.71107900000000	0.26876000000000	0.00000000000000	0.11488100000000	-33.45357000000000	776.92125799999997	-47.70285500000000	0.08548700000000	0.00000000000000	-0.06233600000000	0.00000000000000	-5.61031200000000	0.00000000000000	0.00000000000000	-10.33283800000000	0.00000000000000	
17.12493900000000	-4.32802900000000	49.44709300000000	-10.87859500000000	0.27483700000000	0.00000000000000	0.11576100000000	-33.44477600000000	774.98950300000001	-47.53266100000000	0.08492500000000	0.00000000000000	-0.06225700000000	0.00000000000000	-6.38405400000000	0.00000000000000	0.00000000000000	-10.21314300000000	0.00000000000000	
17.12659800000000	-4.51315700000000	56.97053600000000	-11.92403900000000	0.28018200000000	0.00000000000000	0.11655400000000	-33.47228900000000	772.99562900000001	-47.35252400000000	0.08435900000000	0.00000000000000	-0.06217500000000	0.00000000000000	-7.10268000000000	0.00000000000000	0.00000000000000	-10.09887000000000	0.00000000000000	
17.12827400000000	-4.58032900000000	64.53027200000000	-12.82144100000000	0.28492500000000	0.00000000000000	0.11727500000000	-33.53749300000000	770.93708900000001	-47.16215600000000	0.08379100000000	0.00000000000000	-0.06209100000000	0.00000000000000	-7.74912200000000	0.00000000000000	0.00000000000000	-9.99022800000000	0.00000000000000	
17.12993200000000	-4.52249400000000	72.05305900000000	-13.55380100000000	0.28916900000000	0.00000000000000	0.11793300000000	-33.64161600000000	768.81112399999995	-46.96124400000000	0.08322100000000	0.00000000000000	-0.06200500000000	0.00000000000000	-8.31153000000000	0.00000000000000	0.00000000000000	-9.88740100000000	0.00000000000000	
17.13160100000000	-4.33764600000000	79.48973500000000	-14.11316600000000	0.29299500000000	0.00000000000000	0.11854000000000	-33.78572800000000	766.61476500000003	-46.74945400000000	0.08264800000000	0.00000000000000	-0.06191700000000	0.00000000000000	-8.78345200000000	0.00000000000000	0.00000000000000	-9.79055300000000	0.00000000000000	
17.13328700000000	-4.02830700000000	86.81522200000001	-14.49995200000000	0.29646800000000	0.00000000000000	0.11910100000000	-33.97073000000000	764.34484499999996	-46.52642900000000	0.08207400000000	0.00000000000000	-0.06182700000000	0.00000000000000	-9.16354500000000	0.00000000000000	0.00000000000000	-9.69981800000000	0.00000000000000	
17.13493700000000	-3.60073500000000	94.02654200000001	-14.72170400000000	0.29964100000000	0.00000000000000	0.11962200000000	-34.19735000000000	761.99800500000003	-46.29179500000000	0.08149800000000	0.00000000000000	-0.06173500000000	0.00000000000000	-9.45490600000000	0.00000000000000	0.00000000000000	-9.61530600000000	0.00000000000000	
17.13659900000000	-3.06395900000000	101.13936099999999	-14.79148600000000	0.30255700000000	0.00000000000000	0.12011000000000	-34.46613600000000	759.57070799999997	-46.04515700000000	0.08092200000000	0.00000000000000	-0.06164100000000	0.00000000000000	-9.66416300000000	0.00000000000000	0.00000000000000	-9.53710200000000	0.00000000000000	
17.13829400000000	-2.42876800000000	108.18359200000000	-14.72609700000000	0.30525100000000	0.00000000000000	0.12056700000000	-34.77745300000000	757.05925100000002	-45.78610700000000	0.08034500000000	0.00000000000000	-0.06154500000000	0.00000000000000	-9.80043300000000	0.00000000000000	0.00000000000000	-9.46526100000000	0.00000000000000	
17.13993600000000	-1.70673000000000	115.19859300000000	-14.54429400000000	0.30775200000000	0.00000000000000	0.12099700000000	-35.13147800000000	754.45977600000003	-45.51422100000000	0.07976700000000	0.00000000000000	-0.06144600000000	0.00000000000000	-9.87424800000000	0.00000000000000	0.00000000000000	-9.39981300000000	0.00000000000000	
17.14160000000000	-0.90932500000000	122.22842199999999	-14.26516400000000	0.31008500000000	0.00000000000000	0.12140400000000	-35.52819500000000	751.76828699999999	-45.22906500000000	0.07919100000000	0.00000000000000	-0.06134600000000	0.00000000000000	-9.89656700000000	0.00000000000000	0.00000000000000	-9.34076100000000	0.00000000000000	
17.14327500000000	-0.04723800000000	129.31751600000001	-13.90675600000000	0.31227000000000	0.00000000000000	0.12178900000000	-35.96739700000000	748.98065999999994	-44.93019700000000	0.07861600000000	0.00000000000000	-0.06124300000000	0.00000000000000	-9.87791100000000	0.00000000000000	0.00000000000000	-9.28808000000000	0.00000000000000	
17.14493800000000	0.87016100000000	136.50706000000000	-13.48501900000000	0.31432300000000	0.00000000000000	0.12215500000000	-36.44868000000000	746.09266800000000	-44.61716800000000	0.07804200000000	0.00000000000000	-0.06113700000000	0.00000000000000	-9.82769000000000	0.00000000000000	0.00000000000000	-9.24171800000000	0.00000000000000	
